<svg xmlns="http://www.w3.org/2000/svg" viewBox="0 0 150 190" fill="none">
  <defs>
    <linearGradient id="sprig" x1="25" y1="18" x2="126" y2="170" gradientUnits="userSpaceOnUse">
      <stop stop-color="#9BC36E"/>
      <stop offset="0.55" stop-color="#4D8B45"/>
      <stop offset="1" stop-color="#0B4D24"/>
    </linearGradient>
    <filter id="soft" x="-20%" y="-20%" width="140%" height="140%">
      <feGaussianBlur stdDeviation="0.55"/>
    </filter>
  </defs>
  <g opacity="0.88" filter="url(#soft)">
    <path d="M47 168C68 130 77 83 76 20" stroke="#2E6C35" stroke-width="3.2" stroke-linecap="round"/>
    <path d="M75 33C53 41 37 59 32 84C57 82 75 61 75 33Z" fill="url(#sprig)"/>
    <path d="M79 47C101 58 113 80 110 106C86 96 75 73 79 47Z" fill="url(#sprig)" opacity="0.82"/>
    <path d="M69 92C45 100 29 119 26 145C53 139 70 119 69 92Z" fill="url(#sprig)" opacity="0.78"/>
    <path d="M72 105C94 115 106 137 104 163C81 153 70 130 72 105Z" fill="url(#sprig)" opacity="0.74"/>
    <path d="M47 168C65 132 75 84 76 23" stroke="rgba(255,255,255,0.34)" stroke-width="1.1" stroke-linecap="round"/>
  </g>
</svg>
