<svg xmlns="http://www.w3.org/2000/svg" viewBox="0 0 220 280" fill="none">
  <defs>
    <linearGradient id="leafA" x1="186" y1="18" x2="52" y2="244" gradientUnits="userSpaceOnUse">
      <stop stop-color="#8DBB65"/>
      <stop offset="0.58" stop-color="#3E7E40"/>
      <stop offset="1" stop-color="#0B4D24"/>
    </linearGradient>
    <linearGradient id="leafB" x1="198" y1="210" x2="55" y2="30" gradientUnits="userSpaceOnUse">
      <stop stop-color="#174F2B"/>
      <stop offset="1" stop-color="#A7CC78"/>
    </linearGradient>
    <filter id="soft" x="-20%" y="-20%" width="140%" height="140%">
      <feGaussianBlur stdDeviation="0.7"/>
    </filter>
  </defs>
  <g opacity="0.9" filter="url(#soft)">
    <path d="M172 250C132 196 114 135 104 36" stroke="#2F6F36" stroke-width="4" stroke-linecap="round"/>
    <path d="M160 220C134 191 124 160 123 121" stroke="#4B8444" stroke-width="3" stroke-linecap="round"/>
    <path d="M112 67C141 73 168 95 181 132C145 135 116 112 112 67Z" fill="url(#leafA)"/>
    <path d="M105 39C80 57 65 91 72 128C104 111 117 77 105 39Z" fill="url(#leafB)" opacity="0.88"/>
    <path d="M125 128C158 137 181 165 186 204C150 198 124 170 125 128Z" fill="url(#leafB)" opacity="0.86"/>
    <path d="M117 133C88 146 70 176 70 212C103 201 123 171 117 133Z" fill="url(#leafA)" opacity="0.82"/>
    <path d="M158 215C179 219 196 236 202 260C178 260 160 243 158 215Z" fill="url(#leafA)" opacity="0.74"/>
    <path d="M165 221C136 220 109 236 92 264C126 270 153 252 165 221Z" fill="url(#leafB)" opacity="0.7"/>
    <path d="M175 250C143 210 119 153 104 39" stroke="rgba(255,255,255,0.36)" stroke-width="1.4" stroke-linecap="round"/>
    <path d="M169 124C147 112 131 95 115 70" stroke="rgba(255,255,255,0.24)" stroke-width="1.1" stroke-linecap="round"/>
    <path d="M78 121C90 94 96 70 103 43" stroke="rgba(255,255,255,0.22)" stroke-width="1.1" stroke-linecap="round"/>
  </g>
</svg>
