<svg xmlns="http://www.w3.org/2000/svg" viewBox="0 0 220 280" fill="none">
  <defs>
    <linearGradient id="leafA" x1="30" y1="20" x2="170" y2="245" gradientUnits="userSpaceOnUse">
      <stop stop-color="#7AAA56"/>
      <stop offset="0.55" stop-color="#3D7C3E"/>
      <stop offset="1" stop-color="#0B4D24"/>
    </linearGradient>
    <linearGradient id="leafB" x1="20" y1="210" x2="165" y2="35" gradientUnits="userSpaceOnUse">
      <stop stop-color="#174F2B"/>
      <stop offset="1" stop-color="#9BC36E"/>
    </linearGradient>
    <filter id="soft" x="-20%" y="-20%" width="140%" height="140%">
      <feGaussianBlur stdDeviation="0.7"/>
    </filter>
  </defs>
  <g opacity="0.9" filter="url(#soft)">
    <path d="M48 250C88 196 106 135 116 36" stroke="#2F6F36" stroke-width="4" stroke-linecap="round"/>
    <path d="M60 220C86 191 96 160 97 121" stroke="#4B8444" stroke-width="3" stroke-linecap="round"/>
    <path d="M108 67C79 73 52 95 39 132C75 135 104 112 108 67Z" fill="url(#leafA)"/>
    <path d="M115 39C140 57 155 91 148 128C116 111 103 77 115 39Z" fill="url(#leafB)" opacity="0.88"/>
    <path d="M95 128C62 137 39 165 34 204C70 198 96 170 95 128Z" fill="url(#leafB)" opacity="0.86"/>
    <path d="M103 133C132 146 150 176 150 212C117 201 97 171 103 133Z" fill="url(#leafA)" opacity="0.82"/>
    <path d="M62 215C41 219 24 236 18 260C42 260 60 243 62 215Z" fill="url(#leafA)" opacity="0.74"/>
    <path d="M55 221C84 220 111 236 128 264C94 270 67 252 55 221Z" fill="url(#leafB)" opacity="0.7"/>
    <path d="M45 250C77 210 101 153 116 39" stroke="rgba(255,255,255,0.36)" stroke-width="1.4" stroke-linecap="round"/>
    <path d="M51 124C73 112 89 95 105 70" stroke="rgba(255,255,255,0.24)" stroke-width="1.1" stroke-linecap="round"/>
    <path d="M142 121C130 94 124 70 117 43" stroke="rgba(255,255,255,0.22)" stroke-width="1.1" stroke-linecap="round"/>
  </g>
</svg>
